<svg width="766" height="664" xmlns="http://www.w3.org/2000/svg" xmlns:xlink="http://www.w3.org/1999/xlink" xml:space="preserve" overflow="hidden"><g transform="translate(-1750 -715)"><g><path d="M2243.72 715.11C2246.74 715.113 2246.74 715.113 2249.82 715.117 2252.12 715.114 2254.42 715.11 2256.79 715.107 2259.33 715.116 2261.88 715.124 2264.5 715.133 2268.5 715.133 2268.5 715.133 2272.57 715.132 2281.42 715.134 2290.27 715.153 2299.12 715.172 2305.24 715.176 2311.36 715.18 2317.48 715.182 2331.96 715.19 2346.45 715.209 2360.94 715.234 2377.43 715.261 2393.92 715.274 2410.41 715.286 2444.34 715.311 2478.26 715.354 2512.19 715.408 2508.04 724.065 2503.01 731.098 2497.09 738.687 2496.04 740.034 2495 741.382 2493.92 742.769 2491.6 745.746 2489.29 748.72 2486.97 751.692 2483 756.781 2479.05 761.885 2475.1 766.992 2460.44 785.934 2445.67 804.763 2430.67 823.436 2422.04 834.206 2413.58 845.099 2405.2 856.068 2397.85 865.678 2390.41 875.208 2382.93 884.711 2373.96 896.105 2365.04 907.535 2356.2 919.024 2354.25 921.553 2352.3 924.081 2350.3 926.687 2346.94 931.137 2343.73 935.699 2340.64 940.339 2395.66 940.339 2450.68 940.339 2507.36 940.339 2503.06 948.942 2500.32 952.707 2493.62 959.083 2485.57 966.934 2478.08 975.031 2470.75 983.552 2465.71 989.373 2460.57 995.09 2455.41 1000.8 2448.91 1008.01 2442.45 1015.25 2436.08 1022.57 2427.88 1031.99 2419.53 1041.26 2411.16 1050.54 2406.54 1055.69 2401.97 1060.88 2397.42 1066.11 2389.23 1075.53 2380.87 1084.8 2372.51 1094.07 2367.88 1099.23 2363.31 1104.42 2358.76 1109.64 2352.39 1116.96 2345.93 1124.2 2339.43 1131.41 2327.79 1144.34 2316.29 1157.39 2305 1170.64 2291.53 1186.46 2277.92 1202.08 2263.88 1217.4 2259.2 1222.54 2254.59 1227.74 2250.04 1232.99 2243.3 1240.75 2236.42 1248.37 2229.5 1255.97 2217.53 1269.12 2205.76 1282.39 2194.29 1295.98 2179.33 1313.68 2163.93 1330.84 2147.96 1347.65 2138.56 1357.55 2129.57 1367.67 2120.77 1378.11 2118.35 1373.27 2118.35 1373.27 2120.39 1367.04 2122.03 1363.06 2122.03 1363.06 2123.71 1359.01 2124.32 1357.55 2124.92 1356.08 2125.54 1354.57 2127.56 1349.66 2129.6 1344.76 2131.64 1339.86 2133.07 1336.41 2134.49 1332.96 2135.91 1329.51 2138.15 1324.04 2140.41 1318.58 2142.66 1313.11 2150.65 1293.77 2158.48 1274.36 2166.31 1254.95 2199.1 1173.69 2199.1 1173.69 2211.83 1146.37 2217.42 1134.28 2221.81 1121.88 2226.1 1109.27 2230.83 1096.33 2236.28 1083.66 2241.58 1070.94 2192.94 1070.94 2144.3 1070.94 2094.19 1070.94 2099.03 1056.4 2104.01 1042.11 2109.59 1027.86 2110.27 1026.13 2110.94 1024.39 2111.63 1022.6 2117.65 1007.17 2124.03 991.896 2130.43 976.618 2149.93 930.008 2169.27 883.341 2188.17 836.485 2197.34 813.764 2206.57 791.079 2216.17 768.533 2222.38 753.917 2228.24 739.174 2234.02 724.383 2237.71 715.502 2237.71 715.502 2243.72 715.11Z" fill="#85EEEE" fill-rule="evenodd" fill-opacity="1"/><path d="M1927.2 721.344C1930.12 721.342 1933.05 721.34 1936.06 721.338 1944.07 721.346 1952.07 721.407 1960.07 721.492 1968.44 721.569 1976.81 721.576 1985.19 721.59 2001.03 721.628 2016.87 721.729 2032.71 721.852 2050.76 721.989 2068.8 722.056 2086.84 722.117 2123.94 722.245 2161.04 722.463 2198.14 722.733 2193.36 735.655 2188.57 748.578 2183.64 761.891 2146.96 762.118 2110.28 762.293 2073.6 762.399 2056.57 762.449 2039.54 762.518 2022.5 762.63 2006.07 762.738 1989.64 762.795 1973.21 762.82 1966.94 762.838 1960.66 762.874 1954.39 762.926 1945.61 762.998 1936.84 763.007 1928.06 763.003 1925.46 763.038 1922.86 763.073 1920.17 763.109 1902.63 763.011 1902.63 763.011 1893.13 757.453 1886.75 749.869 1885.86 744.872 1886.21 734.97 1896.56 718.983 1910.1 721.071 1927.2 721.344Z" fill="#8CF1EA" fill-rule="evenodd" fill-opacity="1"/><path d="M1788.49 873.25C1793.21 873.192 1793.21 873.192 1798.03 873.133 1801.45 873.155 1804.86 873.18 1808.28 873.208 1811.8 873.2 1815.33 873.188 1818.85 873.173 1826.23 873.154 1833.6 873.181 1840.97 873.238 1850.41 873.308 1859.84 873.268 1869.28 873.194 1876.55 873.15 1883.82 873.164 1891.1 873.196 1894.58 873.204 1898.05 873.194 1901.53 873.165 1906.4 873.134 1911.27 873.19 1916.13 873.25 1918.9 873.26 1921.66 873.269 1924.51 873.28 1934.25 875.329 1937.93 879.24 1943.99 887.125 1944.29 895.878 1944.29 895.878 1941.58 904.324 1932.61 913.514 1926.51 915.397 1913.94 915.502 1910.84 915.548 1907.74 915.595 1904.55 915.643 1901.18 915.642 1897.82 915.638 1894.46 915.63 1890.99 915.649 1887.52 915.67 1884.05 915.694 1876.79 915.73 1869.53 915.729 1862.27 915.703 1852.98 915.675 1843.69 915.758 1834.4 915.872 1827.24 915.944 1820.08 915.949 1812.92 915.933 1809.49 915.936 1806.07 915.962 1802.64 916.011 1776 916.349 1776 916.349 1767.9 910.971 1763.19 905.453 1760.82 900.185 1759.12 893.114 1763.01 877.664 1774.07 873.301 1788.49 873.25Z" fill="#75DCE5" fill-rule="evenodd" fill-opacity="1"/><path d="M1932.29 1029.16C1935.39 1029.16 1938.5 1029.16 1941.7 1029.16 1945.08 1029.2 1948.46 1029.24 1951.84 1029.27 1955.3 1029.29 1958.77 1029.3 1962.23 1029.31 1971.34 1029.33 1980.45 1029.4 1989.55 1029.48 1998.85 1029.56 2008.15 1029.59 2017.45 1029.63 2035.68 1029.7 2053.91 1029.83 2072.15 1029.98 2068.1 1041.98 2064.06 1053.99 2060.02 1066 2041.53 1066.22 2023.04 1066.39 2004.56 1066.5 1995.97 1066.55 1987.39 1066.61 1978.8 1066.72 1968.93 1066.85 1959.06 1066.89 1949.18 1066.94 1946.1 1066.99 1943.02 1067.03 1939.85 1067.09 1935.55 1067.09 1935.55 1067.09 1931.17 1067.09 1928.65 1067.11 1926.13 1067.13 1923.53 1067.15 1915.24 1065.7 1912.41 1062.84 1907.24 1056.39 1905.36 1049.29 1906.27 1044.7 1907.24 1037.18 1914.88 1029.2 1921.51 1029.1 1932.29 1029.16Z" fill="#69D7E9" fill-rule="evenodd" fill-opacity="1"/><path d="M2026.67 873.654C2029.76 873.671 2032.86 873.688 2036.06 873.706 2044.27 873.752 2052.47 873.87 2060.68 874.004 2069.07 874.128 2077.46 874.183 2085.85 874.244 2102.29 874.377 2118.72 874.579 2135.16 874.833 2134.69 876.207 2134.22 877.58 2133.74 878.995 2129.88 890.425 2126.28 901.862 2123.06 913.488 2105.01 913.855 2086.96 914.109 2068.91 914.284 2062.77 914.357 2056.63 914.456 2050.5 914.581 2041.67 914.757 2032.85 914.84 2024.02 914.903 2021.27 914.978 2018.53 915.053 2015.7 915.13 1997.14 915.138 1997.14 915.138 1990.33 910.382 1985.56 904.899 1982.88 899.841 1981.16 892.802 1982.85 886.236 1985.24 882.088 1990.17 877.396 2000.97 871.389 2014.68 873.406 2026.67 873.654Z" fill="#7FE8E8" fill-rule="evenodd" fill-opacity="1"/><path d="M1913.53 1105.25C1916.22 1105.25 1918.92 1105.24 1921.7 1105.23 1927.38 1105.24 1933.07 1105.27 1938.76 1105.33 1947.47 1105.41 1956.18 1105.38 1964.9 1105.33 1970.43 1105.35 1975.95 1105.37 1981.48 1105.4 1984.09 1105.39 1986.7 1105.38 1989.39 1105.37 1993.03 1105.42 1993.03 1105.42 1996.74 1105.48 1999.94 1105.5 1999.94 1105.5 2003.2 1105.53 2010.81 1107.18 2013.75 1110.52 2018.62 1116.47 2019.99 1121.31 2019.99 1121.31 2019.98 1126.16 2020.03 1127.76 2020.09 1129.36 2020.14 1131.01 2017.62 1139.06 2013.73 1141.19 2006.54 1145.54 1997.49 1147.03 1988.52 1146.96 1979.36 1146.92 1976.72 1146.93 1974.09 1146.95 1971.37 1146.96 1965.81 1146.98 1960.24 1146.97 1954.68 1146.94 1946.17 1146.91 1937.66 1146.99 1929.15 1147.08 1923.74 1147.09 1918.33 1147.08 1912.92 1147.07 1910.37 1147.1 1907.83 1147.13 1905.21 1147.17 1887.61 1146.94 1887.61 1146.94 1878.09 1139.85 1873.65 1133.43 1873.65 1133.43 1872.14 1126.16 1876.78 1103.84 1894.84 1105.02 1913.53 1105.25Z" fill="#58C5E9" fill-rule="evenodd" fill-opacity="1"/><path d="M2097.24 1106.37C2099.9 1106.38 2102.56 1106.4 2105.29 1106.42 2113.76 1106.48 2122.23 1106.63 2130.7 1106.78 2136.45 1106.84 2142.19 1106.9 2147.94 1106.95 2162.02 1107.08 2176.09 1107.28 2190.17 1107.53 2185.96 1120.52 2181.36 1133.09 2175.72 1145.55 2160.84 1145.9 2145.97 1146.16 2131.09 1146.33 2126.03 1146.4 2120.97 1146.5 2115.91 1146.62 2108.64 1146.8 2101.36 1146.88 2094.08 1146.94 2091.83 1147.01 2089.57 1147.09 2087.24 1147.16 2071.91 1147.17 2071.91 1147.17 2065.59 1142.49 2060.81 1137.05 2057.9 1132.2 2056.17 1125.2 2061.58 1104.39 2079.4 1105.94 2097.24 1106.37Z" fill="#70D8E4" fill-rule="evenodd" fill-opacity="1"/><path d="M2011.84 951.436C2015.75 951.457 2015.75 951.457 2019.75 951.478 2028.07 951.532 2036.39 951.653 2044.71 951.776 2050.36 951.824 2056.01 951.869 2061.66 951.908 2075.49 952.015 2089.32 952.176 2103.16 952.38 2098.93 965.593 2094.32 978.379 2088.66 991.047 2073.7 991.286 2058.73 991.461 2043.77 991.578 2038.68 991.627 2033.58 991.693 2028.49 991.776 2021.18 991.893 2013.86 991.948 2006.54 991.991 2003.13 992.066 2003.13 992.066 1999.65 992.142 1983.84 992.148 1983.84 992.148 1976.08 986.457 1972.43 981.018 1971.3 978.21 1971.32 971.713 1971.26 970.118 1971.21 968.523 1971.16 966.88 1976.92 948.547 1996.36 951.13 2011.84 951.436Z" fill="#76DEE4" fill-rule="evenodd" fill-opacity="1"/><path d="M2091.61 796.255C2093.74 796.272 2095.88 796.289 2098.08 796.307 2104.87 796.373 2111.66 796.525 2118.45 796.678 2123.07 796.738 2127.68 796.793 2132.3 796.843 2143.59 796.975 2154.88 797.183 2166.17 797.431 2164.51 806.146 2162.27 813.891 2158.9 822.117 2157.62 825.265 2157.62 825.265 2156.32 828.477 2154.05 833.557 2154.05 833.557 2151.63 835.965 2145.45 836.298 2139.35 836.479 2133.17 836.539 2131.32 836.559 2129.46 836.578 2127.55 836.598 2123.61 836.632 2119.67 836.658 2115.73 836.676 2109.71 836.718 2103.7 836.823 2097.68 836.93 2093.86 836.954 2090.04 836.975 2086.21 836.991 2083.52 837.054 2083.52 837.054 2080.76 837.119 2072.38 837.084 2067.66 836.597 2060.82 831.602 2055.3 823.783 2055.62 818.791 2057.1 809.473 2067.1 795.805 2075.86 795.779 2091.61 796.255Z" fill="#88EEE8" fill-rule="evenodd" fill-opacity="1"/><path d="M1980.23 796.731C1983.33 796.745 1986.43 796.759 1989.63 796.774 2015.53 797.115 2015.53 797.115 2023.74 802.658 2029.39 811.148 2029.81 814.554 2028.59 824.543 2024.06 830.142 2020.45 833.487 2014.04 836.701 2004.08 837.382 1994.12 837.463 1984.15 837.552 1980.83 837.592 1977.52 837.659 1974.21 837.752 1969.42 837.885 1964.64 837.93 1959.85 837.974 1956.99 838.022 1954.12 838.07 1951.17 838.12 1943.69 836.701 1943.69 836.701 1937.91 830.998 1933.05 823.014 1932.26 819.146 1933.98 809.953 1944.67 792.74 1961.84 796.256 1980.23 796.731Z" fill="#87ECE8" fill-rule="evenodd" fill-opacity="1"/><path d="M1796.39 721.481C1801.44 721.501 1806.48 721.432 1811.53 721.356 1816.33 721.358 1816.33 721.358 1821.23 721.361 1824.15 721.356 1827.07 721.352 1830.08 721.347 1839.5 722.784 1843.54 725.399 1850.1 732.16 1851.47 740.567 1851.47 740.567 1850.1 748.974 1844.61 756.484 1841.67 758.381 1832.34 759.863 1827.63 759.903 1827.63 759.903 1822.83 759.943 1821.14 759.958 1819.46 759.972 1817.72 759.988 1814.17 760.005 1810.61 759.997 1807.06 759.967 1801.63 759.933 1796.21 760.015 1790.78 760.107 1787.32 760.109 1783.86 760.105 1780.4 760.093 1777.26 760.094 1774.12 760.096 1770.89 760.098 1762.82 758.582 1762.82 758.582 1756.88 753.027 1753.12 746.572 1753.12 746.572 1753.12 737.865 1759.23 717.439 1778.26 721.369 1796.39 721.481Z" fill="#89F0EB" fill-rule="evenodd" fill-opacity="1"/><path d="M2116.42 1184.19C2120.16 1184.23 2120.16 1184.23 2123.97 1184.26 2127.85 1184.36 2127.85 1184.36 2131.81 1184.45 2135.75 1184.5 2135.75 1184.5 2139.76 1184.55 2146.23 1184.63 2152.7 1184.75 2159.17 1184.9 2155.12 1196.94 2151.07 1208.98 2147.01 1221.02 2139.51 1221.38 2132.02 1221.59 2124.51 1221.78 2122.39 1221.88 2120.27 1221.98 2118.08 1222.08 2102.36 1222.38 2102.36 1222.38 2094.45 1215.5 2089.82 1206.58 2090.66 1201.63 2093.5 1192.12 2100.9 1184.93 2106.24 1184.03 2116.42 1184.19Z" fill="#5FCCE5" fill-rule="evenodd" fill-opacity="1"/></g></g></svg>
