<svg width="765" height="669" xmlns="http://www.w3.org/2000/svg" xmlns:xlink="http://www.w3.org/1999/xlink" xml:space="preserve" overflow="hidden"><g transform="translate(-2530 -605)"><g><path d="M3022.72 606.11C3025.74 606.113 3025.74 606.113 3028.82 606.117 3031.12 606.114 3033.42 606.11 3035.79 606.107 3038.33 606.116 3040.88 606.124 3043.5 606.133 3047.5 606.133 3047.5 606.133 3051.57 606.132 3060.42 606.134 3069.27 606.153 3078.12 606.172 3084.24 606.176 3090.36 606.18 3096.48 606.182 3110.96 606.19 3125.45 606.21 3139.94 606.234 3156.43 606.261 3172.92 606.274 3189.41 606.286 3223.34 606.311 3257.26 606.354 3291.19 606.408 3287.04 615.065 3282.01 622.098 3276.09 629.687 3275.04 631.034 3274 632.382 3272.92 633.769 3270.6 636.746 3268.29 639.72 3265.97 642.692 3262 647.781 3258.05 652.885 3254.1 657.992 3239.44 676.934 3224.67 695.764 3209.67 714.436 3201.04 725.206 3192.58 736.099 3184.2 747.068 3176.85 756.678 3169.41 766.208 3161.93 775.711 3152.96 787.105 3144.04 798.535 3135.2 810.024 3133.25 812.553 3131.3 815.081 3129.3 817.687 3125.94 822.137 3122.73 826.7 3119.64 831.339 3174.66 831.339 3229.68 831.339 3286.36 831.339 3282.06 839.942 3279.32 843.707 3272.62 850.083 3264.57 857.934 3257.08 866.031 3249.75 874.552 3244.71 880.373 3239.57 886.09 3234.41 891.804 3227.91 899.013 3221.45 906.249 3215.08 913.571 3206.88 922.992 3198.53 932.262 3190.16 941.536 3185.54 946.692 3180.97 951.883 3176.42 957.106 3168.23 966.527 3159.87 975.797 3151.51 985.072 3146.88 990.227 3142.31 995.418 3137.76 1000.64 3131.39 1007.96 3124.93 1015.2 3118.43 1022.41 3106.79 1035.34 3095.29 1048.39 3084 1061.65 3070.53 1077.46 3056.92 1093.08 3042.88 1108.4 3038.2 1113.54 3033.59 1118.74 3029.04 1123.99 3022.3 1131.75 3015.42 1139.37 3008.5 1146.97 2996.53 1160.12 2984.76 1173.39 2973.29 1186.98 2958.33 1204.68 2942.93 1221.84 2926.96 1238.65 2917.56 1248.55 2908.57 1258.67 2899.77 1269.11 2897.35 1264.27 2897.35 1264.27 2899.39 1258.04 2901.03 1254.06 2901.03 1254.06 2902.71 1250.01 2903.32 1248.55 2903.92 1247.08 2904.54 1245.57 2906.56 1240.66 2908.6 1235.76 2910.64 1230.86 2912.07 1227.41 2913.49 1223.96 2914.91 1220.51 2917.15 1215.04 2919.41 1209.58 2921.66 1204.11 2929.65 1184.77 2937.48 1165.36 2945.31 1145.95 2978.1 1064.69 2978.1 1064.69 2990.83 1037.37 2996.42 1025.28 3000.81 1012.88 3005.1 1000.27 3009.83 987.329 3015.28 974.664 3020.58 961.943 2971.94 961.943 2923.3 961.943 2873.19 961.943 2878.03 947.4 2883.01 933.108 2888.59 918.862 2889.27 917.127 2889.94 915.392 2890.63 913.604 2896.65 898.172 2903.03 882.896 2909.43 867.618 2928.93 821.008 2948.27 774.341 2967.17 727.485 2976.34 704.764 2985.57 682.079 2995.17 659.533 3001.38 644.917 3007.24 630.174 3013.02 615.383 3016.71 606.502 3016.71 606.502 3022.72 606.11Z" fill="#000000" fill-rule="evenodd" fill-opacity="1"/><path d="M2706.2 612.344C2709.12 612.342 2712.05 612.34 2715.06 612.338 2723.07 612.346 2731.07 612.407 2739.07 612.492 2747.44 612.569 2755.81 612.576 2764.19 612.59 2780.03 612.628 2795.87 612.729 2811.71 612.852 2829.76 612.989 2847.8 613.056 2865.84 613.117 2902.94 613.245 2940.04 613.463 2977.14 613.733 2972.36 626.655 2967.57 639.578 2962.64 652.891 2925.96 653.118 2889.28 653.293 2852.6 653.399 2835.57 653.449 2818.54 653.518 2801.5 653.63 2785.07 653.738 2768.64 653.795 2752.21 653.82 2745.94 653.838 2739.66 653.874 2733.39 653.926 2724.61 653.998 2715.84 654.008 2707.06 654.003 2704.46 654.038 2701.86 654.073 2699.17 654.109 2681.63 654.011 2681.63 654.011 2672.13 648.453 2665.75 640.869 2664.86 635.872 2665.21 625.97 2675.56 609.983 2689.1 612.072 2706.2 612.344Z" fill="#000000" fill-rule="evenodd" fill-opacity="1"/><path d="M2567.49 765.244C2572.21 765.187 2572.21 765.187 2577.03 765.129 2580.45 765.151 2583.86 765.175 2587.28 765.203 2590.8 765.195 2594.33 765.183 2597.85 765.168 2605.23 765.15 2612.6 765.176 2619.97 765.232 2629.41 765.3 2638.84 765.261 2648.28 765.189 2655.55 765.146 2662.82 765.16 2670.1 765.191 2673.58 765.199 2677.05 765.189 2680.53 765.161 2685.4 765.131 2690.27 765.185 2695.13 765.244 2697.9 765.254 2700.66 765.263 2703.51 765.273 2713.25 767.275 2716.93 771.094 2722.99 778.796 2723.29 787.346 2723.29 787.346 2720.58 795.595 2711.61 804.572 2705.51 806.411 2692.94 806.513 2689.84 806.559 2686.74 806.605 2683.55 806.652 2680.18 806.651 2676.82 806.646 2673.46 806.639 2669.99 806.657 2666.52 806.678 2663.05 806.701 2655.79 806.737 2648.53 806.735 2641.27 806.71 2631.98 806.682 2622.69 806.764 2613.4 806.875 2606.24 806.946 2599.08 806.95 2591.92 806.935 2588.49 806.937 2585.07 806.962 2581.64 807.011 2555 807.341 2555 807.341 2546.9 802.088 2542.19 796.699 2539.82 791.552 2538.12 784.646 2542.01 769.555 2553.07 765.294 2567.49 765.244Z" fill="#000000" fill-rule="evenodd" fill-opacity="1"/><path d="M2712.13 920.161C2715.21 920.161 2718.3 920.162 2721.48 920.162 2724.84 920.199 2728.2 920.237 2731.56 920.275 2735 920.289 2738.45 920.299 2741.89 920.306 2750.95 920.333 2760 920.404 2769.05 920.484 2778.29 920.558 2787.53 920.59 2796.78 920.627 2814.9 920.704 2833.02 920.827 2851.14 920.978 2847.13 932.985 2843.11 944.991 2839.09 956.998 2820.72 957.22 2802.34 957.391 2783.96 957.495 2775.43 957.545 2766.89 957.614 2758.36 957.722 2748.55 957.847 2738.74 957.893 2728.92 957.936 2725.86 957.985 2722.8 958.035 2719.65 958.086 2715.38 958.087 2715.38 958.087 2711.02 958.088 2708.52 958.109 2706.01 958.131 2703.43 958.153 2695.18 956.7 2692.37 953.84 2687.23 947.392 2685.37 940.287 2686.27 935.705 2687.23 928.182 2694.83 920.197 2701.41 920.098 2712.13 920.161Z" fill="#000000" fill-rule="evenodd" fill-opacity="1"/><path d="M2805.67 765.653C2808.76 765.671 2811.86 765.688 2815.06 765.705 2823.27 765.751 2831.47 765.87 2839.68 766.004 2848.07 766.128 2856.46 766.183 2864.85 766.243 2881.29 766.376 2897.72 766.579 2914.16 766.833 2913.69 768.207 2913.22 769.58 2912.74 770.995 2908.88 782.425 2905.28 793.862 2902.06 805.488 2884.01 805.856 2865.96 806.109 2847.91 806.284 2841.77 806.357 2835.63 806.456 2829.5 806.581 2820.67 806.757 2811.85 806.84 2803.02 806.903 2800.27 806.978 2797.53 807.053 2794.7 807.13 2776.14 807.138 2776.14 807.138 2769.33 802.382 2764.56 796.899 2761.88 791.841 2760.16 784.801 2761.85 778.235 2764.24 774.087 2769.17 769.396 2779.97 763.388 2793.68 765.405 2805.67 765.653Z" fill="#000000" fill-rule="evenodd" fill-opacity="1"/><path d="M2692.53 997.251C2695.22 997.245 2697.92 997.239 2700.7 997.233 2706.38 997.235 2712.07 997.268 2717.76 997.328 2726.47 997.412 2735.18 997.378 2743.9 997.331 2749.43 997.348 2754.95 997.371 2760.48 997.402 2763.09 997.39 2765.7 997.378 2768.39 997.366 2772.03 997.424 2772.03 997.424 2775.74 997.482 2778.94 997.505 2778.94 997.505 2782.2 997.528 2789.81 999.175 2792.75 1002.52 2797.62 1008.47 2798.99 1013.31 2798.99 1013.31 2798.98 1018.16 2799.03 1019.76 2799.09 1021.36 2799.14 1023.01 2796.62 1031.06 2792.73 1033.19 2785.54 1037.54 2776.49 1039.03 2767.52 1038.96 2758.36 1038.92 2755.72 1038.93 2753.09 1038.95 2750.37 1038.96 2744.81 1038.98 2739.24 1038.97 2733.68 1038.94 2725.17 1038.91 2716.66 1038.99 2708.15 1039.08 2702.74 1039.09 2697.33 1039.08 2691.92 1039.07 2689.37 1039.1 2686.83 1039.13 2684.21 1039.17 2666.61 1038.94 2666.61 1038.94 2657.09 1031.85 2652.65 1025.43 2652.65 1025.43 2651.14 1018.16 2655.78 995.844 2673.84 997.02 2692.53 997.251Z" fill="#000000" fill-rule="evenodd" fill-opacity="1"/><path d="M2876.55 997.375C2879.23 997.392 2881.9 997.409 2884.66 997.427 2893.19 997.495 2901.72 997.648 2910.25 997.802 2916.05 997.863 2921.84 997.919 2927.63 997.969 2941.81 998.103 2955.99 998.307 2970.17 998.563 2965.93 1011.87 2961.29 1024.75 2955.61 1037.51 2940.62 1037.87 2925.64 1038.14 2910.65 1038.31 2905.55 1038.39 2900.46 1038.49 2895.36 1038.61 2888.03 1038.79 2880.7 1038.87 2873.37 1038.94 2871.09 1039.01 2868.82 1039.09 2866.48 1039.17 2851.03 1039.17 2851.03 1039.17 2844.66 1034.38 2839.85 1028.81 2836.91 1023.84 2835.17 1016.67 2840.62 995.348 2858.58 996.939 2876.55 997.375Z" fill="#000000" fill-rule="evenodd" fill-opacity="1"/><path d="M2791.15 842.436C2795.09 842.456 2795.09 842.456 2799.12 842.477 2807.5 842.531 2815.89 842.653 2824.27 842.776 2829.96 842.824 2835.65 842.868 2841.35 842.908 2855.28 843.014 2869.22 843.176 2883.16 843.38 2878.9 856.593 2874.25 869.379 2868.55 882.047 2853.47 882.286 2838.4 882.461 2823.32 882.578 2818.19 882.627 2813.06 882.693 2807.93 882.776 2800.56 882.893 2793.19 882.948 2785.81 882.991 2782.37 883.066 2782.37 883.066 2778.86 883.142 2762.94 883.148 2762.94 883.148 2755.12 877.457 2751.44 872.018 2750.31 869.21 2750.32 862.713 2750.27 861.118 2750.21 859.523 2750.16 857.88 2755.97 839.546 2775.55 842.13 2791.15 842.436Z" fill="#000000" fill-rule="evenodd" fill-opacity="1"/><path d="M2871.29 688.254C2873.4 688.271 2875.52 688.289 2877.7 688.306 2884.43 688.373 2891.15 688.524 2897.88 688.678 2902.46 688.738 2907.03 688.793 2911.6 688.842 2922.79 688.975 2933.98 689.183 2945.17 689.43 2943.52 698.146 2941.3 705.891 2937.96 714.117 2936.7 717.265 2936.7 717.265 2935.41 720.477 2933.16 725.557 2933.16 725.557 2930.76 727.965 2924.64 728.298 2918.59 728.479 2912.47 728.539 2910.63 728.559 2908.79 728.578 2906.9 728.598 2902.99 728.632 2899.09 728.658 2895.19 728.676 2889.23 728.718 2883.27 728.823 2877.3 728.93 2873.52 728.954 2869.73 728.975 2865.94 728.991 2863.27 729.054 2863.27 729.054 2860.54 729.119 2852.23 729.084 2847.55 728.597 2840.77 723.602 2835.31 715.783 2835.62 710.791 2837.09 701.472 2847 687.804 2855.68 687.779 2871.29 688.254Z" fill="#000000" fill-rule="evenodd" fill-opacity="1"/><path d="M2759.73 687.731C2762.81 687.745 2765.88 687.759 2769.04 687.774 2794.67 688.115 2794.67 688.115 2802.8 693.658 2808.38 702.148 2808.81 705.554 2807.6 715.543 2803.12 721.142 2799.54 724.487 2793.19 727.701 2783.34 728.382 2773.49 728.464 2763.61 728.552 2760.34 728.592 2757.06 728.659 2753.78 728.752 2749.04 728.885 2744.31 728.93 2739.57 728.974 2736.74 729.022 2733.9 729.07 2730.98 729.12 2723.57 727.701 2723.57 727.701 2717.86 721.998 2713.05 714.015 2712.27 710.146 2713.97 700.953 2724.55 683.74 2741.54 687.256 2759.73 687.731Z" fill="#000000" fill-rule="evenodd" fill-opacity="1"/><path d="M2575.39 613.481C2580.44 613.501 2585.48 613.432 2590.53 613.356 2595.33 613.359 2595.33 613.359 2600.23 613.361 2603.15 613.356 2606.07 613.352 2609.08 613.347 2618.5 614.784 2622.54 617.399 2629.1 624.16 2630.47 632.567 2630.47 632.567 2629.1 640.974 2623.61 648.484 2620.67 650.381 2611.34 651.863 2606.63 651.903 2606.63 651.903 2601.83 651.943 2600.14 651.958 2598.46 651.972 2596.72 651.988 2593.17 652.005 2589.61 651.997 2586.06 651.967 2580.63 651.933 2575.21 652.015 2569.78 652.107 2566.32 652.109 2562.86 652.105 2559.4 652.093 2556.26 652.094 2553.12 652.096 2549.89 652.098 2541.82 650.582 2541.82 650.582 2535.88 645.027 2532.12 638.572 2532.12 638.572 2532.12 629.865 2538.23 609.439 2557.26 613.369 2575.39 613.481Z" fill="#000000" fill-rule="evenodd" fill-opacity="1"/><path d="M2896.04 1075.19C2899.73 1075.23 2899.73 1075.23 2903.49 1075.26 2907.31 1075.36 2907.31 1075.36 2911.21 1075.45 2915.09 1075.5 2915.09 1075.5 2919.05 1075.55 2925.42 1075.63 2931.8 1075.75 2938.17 1075.9 2934.18 1087.94 2930.18 1099.98 2926.19 1112.02 2918.8 1112.38 2911.41 1112.59 2904.02 1112.78 2901.93 1112.88 2899.84 1112.98 2897.68 1113.08 2882.19 1113.38 2882.19 1113.38 2874.4 1106.5 2869.84 1097.58 2870.66 1092.63 2873.46 1083.12 2880.75 1075.93 2886.01 1075.03 2896.04 1075.19Z" fill="#000000" fill-rule="evenodd" fill-opacity="1"/></g></g></svg>
