<?xml version="1.0" encoding="UTF-8"?>
<!-- Generator: visioncortex VTracer -->
<svg id="svg" version="1.1" xmlns="http://www.w3.org/2000/svg" style="display: block;" viewBox="0 0 512 512"><path d="M0 0 C7.6294558 3.09666147 12.63201091 10.6173878 15.9921875 17.80859375 C21.26713269 32.83857458 18.08561228 49.98608669 11.8046875 64.18359375 C9.81965511 67.93091967 7.64875194 69.93432306 4.33984375 72.53515625 C0.76896185 76.04289737 -0.55171048 78.54659249 -0.78697205 83.59750366 C-0.77699253 87.34474366 -0.60896185 91.0687976 -0.3828125 94.80859375 C-0.24078821 97.80796518 -0.12625106 100.80737557 -0.03125 103.80859375 C-0.0066571 104.5466626 0.01793579 105.28473145 0.04327393 106.04516602 C0.20035009 114.1076769 -0.20930757 124.51262885 -4.03916931 131.76036072 C-5.10816253 134.02078772 -5.29543842 135.569866 -5.37084961 138.05688477 C-5.40119293 138.89135132 -5.43153625 139.72581787 -5.46279907 140.58557129 C-5.48667694 141.48545776 -5.51055481 142.38534424 -5.53515625 143.3125 C-5.60369748 145.25725078 -5.67247291 147.20199332 -5.74145508 149.14672852 C-5.77429596 150.1635672 -5.80713684 151.18040588 -5.8409729 152.22805786 C-8.01678864 217.77045009 -8.01678864 217.77045009 -20.0078125 238.80859375 C-20.45898438 239.62585938 -20.91015625 240.443125 -21.375 241.28515625 C-26.31160323 249.47724917 -32.68126469 253.01933247 -41.84375 255.31640625 C-47.91282146 256.26048403 -53.87225249 255.97746237 -60.0078125 255.80859375 C-59.6778125 265.04859375 -59.3478125 274.28859375 -59.0078125 283.80859375 C-57.0278125 283.47859375 -55.0478125 283.14859375 -53.0078125 282.80859375 C-50.85613184 285.90874489 -48.71249257 289.01437187 -46.5703125 292.12109375 C-45.95865234 293.00216797 -45.34699219 293.88324219 -44.71679688 294.79101562 C-44.13349609 295.63857422 -43.55019531 296.48613281 -42.94921875 297.359375 C-42.40982666 298.13966064 -41.87043457 298.91994629 -41.31469727 299.72387695 C-40.0078125 301.80859375 -40.0078125 301.80859375 -39.0078125 304.80859375 C-37.06959129 305.54414516 -37.06959129 305.54414516 -34.7578125 305.87109375 C-32.18788131 306.35925964 -29.99666818 306.81316578 -27.5703125 307.80859375 C-25.16410341 308.74760217 -23.1207055 309.16273998 -20.5859375 309.58984375 C-14.48508465 310.78636973 -8.93219474 312.95299309 -3.1953125 315.30859375 C-2.10581299 315.75219238 -1.01631348 316.19579102 0.10620117 316.65283203 C21.50238225 325.46916106 43.49901313 335.33888358 60.9921875 350.80859375 C61.765625 351.44023437 62.5390625 352.071875 63.3359375 352.72265625 C72.30864585 360.22982224 77.58781487 369.06984251 81.9921875 379.80859375 C82.58580078 381.08283203 82.58580078 381.08283203 83.19140625 382.3828125 C84.09881494 385.13159686 84.11496717 386.17086734 82.9921875 388.80859375 C81.64453125 390.6328125 81.64453125 390.6328125 79.9296875 392.49609375 C79.29804688 393.18960937 78.66640625 393.883125 78.015625 394.59765625 C77.01402344 395.69207031 77.01402344 395.69207031 75.9921875 396.80859375 C75.02152344 397.93394531 75.02152344 397.93394531 74.03125 399.08203125 C70.29434291 403.40975369 66.45878282 407.33625 62.0859375 411.01953125 C60.6587794 412.2390059 59.26347271 413.49652227 57.8984375 414.78515625 C44.82652604 427.09603177 29.51334841 436.89054274 13.9921875 445.80859375 C13.25983887 446.23237305 12.52749023 446.65615234 11.77294922 447.09277344 C-11.65985086 460.49030053 -37.35401596 468.86368051 -63.7578125 474.05859375 C-64.90697144 474.28554932 -64.90697144 474.28554932 -66.0793457 474.51708984 C-81.00546475 477.26137474 -95.91803816 478.18954152 -111.0703125 478.12109375 C-111.91609863 478.11927094 -112.76188477 478.11744812 -113.63330078 478.11557007 C-127.9283677 478.06400274 -141.90288008 477.27862754 -156.0078125 474.80859375 C-157.38718994 474.5751123 -157.38718994 474.5751123 -158.79443359 474.33691406 C-198.77205778 467.32034734 -237.25464558 450.05420757 -269.0078125 424.80859375 C-269.9153125 424.09316406 -270.8228125 423.37773437 -271.7578125 422.640625 C-281.62655972 414.72039463 -290.98169118 406.15683226 -299.79296875 397.07421875 C-301.17192382 395.66364742 -302.59143438 394.29031094 -304.06640625 392.98046875 C-305.83137039 391.29805304 -307.01945864 390.03835826 -308.0078125 387.80859375 C-307.84618862 384.11710438 -306.52141111 381.14517434 -305.0078125 377.80859375 C-304.39292969 376.34486328 -304.39292969 376.34486328 -303.765625 374.8515625 C-297.20874732 360.42272716 -284.97030781 349.77258402 -271.6328125 341.62109375 C-270.73780029 341.07283936 -269.84278809 340.52458496 -268.9206543 339.9597168 C-253.28084814 330.59557797 -236.69392804 323.03070876 -219.6953125 316.49609375 C-218.62547119 316.08254639 -217.55562988 315.66899902 -216.45336914 315.24291992 C-211.33983648 313.30637184 -206.25725636 311.55458272 -200.98046875 310.1171875 C-187.03916496 306.12926893 -181.040389 300.51870463 -173.6875 288 C-173.26194824 287.21826416 -172.83639648 286.43652832 -172.39794922 285.63110352 C-171.0078125 283.80859375 -171.0078125 283.80859375 -167.0078125 282.80859375 C-167.0078125 251.12859375 -167.0078125 219.44859375 -167.0078125 186.80859375 C-168.9878125 186.80859375 -170.9678125 186.80859375 -173.0078125 186.80859375 C-185.2969042 179.65857676 -188.74289424 160.46960239 -192.23046875 147.6953125 C-206.82294413 92.06405484 -206.82294413 92.06405484 -195.37109375 69.59765625 C-193.85228289 67.00780708 -193.85228289 67.00780708 -194.0078125 64.68359375 C-196.5004182 60.00995805 -201.73912639 57.77367275 -206.3203125 55.55859375 C-207.38894531 55.0378125 -208.45757812 54.51703125 -209.55859375 53.98046875 C-210.36683594 53.59375 -211.17507812 53.20703125 -212.0078125 52.80859375 C-208.41295732 49.21373857 -204.29455785 49.62393848 -199.3828125 49.55859375 C-193.11057597 49.58483742 -187.84153425 50.55037888 -182.0078125 52.80859375 C-183.95650417 47.30640551 -186.56659995 43.73939538 -190.58203125 39.5078125 C-192.0078125 37.80859375 -192.0078125 37.80859375 -192.0078125 35.80859375 C-177.71781228 35.11434273 -177.71781228 35.11434273 -171.5078125 38.30859375 C-167.84822711 39.82585251 -166.58836638 40.03480217 -162.83984375 38.57421875 C-161.01429577 37.57492774 -159.24029709 36.509939 -157.4621582 35.42871094 C-134.32869732 21.59603787 -104.2210965 18.22963215 -77.859375 16.1328125 C-39.71718431 13.25459139 -39.71718431 13.25459139 -3.87670898 0.69970703 C-2.0078125 -0.19140625 -2.0078125 -0.19140625 0 0 Z " transform="translate(368.0078125,34.19140625)" style="fill: #FE937D;"/><path d="M0 0 C0.56041992 0.57347168 1.12083984 1.14694336 1.69824219 1.73779297 C4.45548105 4.44765459 7.50647436 6.27578477 10.828125 8.1953125 C11.82132751 8.77955238 11.82132751 8.77955238 12.83459473 9.37559509 C14.97001579 10.63067505 17.11001001 11.87772968 19.25 13.125 C22.1580445 14.83159109 25.06350882 16.54254828 27.96875 18.25390625 C28.67489441 18.6692009 29.38103882 19.08449554 30.10858154 19.51237488 C35.99919677 22.98281653 41.8204865 26.55343131 47.58300781 30.23291016 C50.32692655 31.98132674 53.05147931 33.6187755 56 35 C56.20625 34.22914063 56.4125 33.45828125 56.625 32.6640625 C58.53616998 27.57122885 61.25624862 23.0600849 64 18.375 C65.08420838 16.50832047 66.16757479 14.64115159 67.25 12.7734375 C67.72953125 11.95278809 68.2090625 11.13213867 68.703125 10.28662109 C69.87510448 8.220213 70.96069333 6.13560363 72 4 C72.66 4 73.32 4 74 4 C74.4439209 4.80219971 74.8878418 5.60439941 75.34521484 6.4309082 C76.99539098 9.41146057 78.64671868 12.39136875 80.29882812 15.37084961 C81.01315724 16.65965619 81.72702857 17.94871662 82.44042969 19.23803711 C83.46689056 21.0929577 84.49500304 22.94695433 85.5234375 24.80078125 C86.14138184 25.91622314 86.75932617 27.03166504 87.39599609 28.1809082 C88.52431536 30.16396796 89.73440432 32.10160648 91 34 C94.60061056 32.6544027 97.79285589 31.04189996 101.078125 29.05078125 C102.55551147 28.15975708 102.55551147 28.15975708 104.06274414 27.25073242 C105.11453857 26.61111572 106.16633301 25.97149902 107.25 25.3125 C109.48283976 23.96055234 111.71592021 22.60900216 113.94921875 21.2578125 C114.80917702 20.73658058 114.80917702 20.73658058 115.68650818 20.20481873 C119.84329638 17.68850019 124.02054978 15.20871956 128.20703125 12.7421875 C129.36764383 12.05580382 130.52812767 11.36920241 131.68847656 10.68237305 C133.91508856 9.36590079 136.14485383 8.05474543 138.37792969 6.74926758 C139.37856445 6.15525146 140.37919922 5.56123535 141.41015625 4.94921875 C142.29840088 4.42674561 143.18664551 3.90427246 144.10180664 3.3659668 C144.72821045 2.91519775 145.35461426 2.46442871 146 2 C146 1.34 146 0.68 146 0 C154.2365416 1.6867863 154.2365416 1.6867863 157.4375 3 C159.84370909 3.93900842 161.887107 4.35414623 164.421875 4.78125 C170.52272785 5.97777598 176.07561776 8.14439934 181.8125 10.5 C182.90199951 10.94359863 183.99149902 11.38719727 185.11401367 11.84423828 C206.51019475 20.66056731 228.50682563 30.53028983 246 46 C246.7734375 46.63164062 247.546875 47.26328125 248.34375 47.9140625 C257.31645835 55.42122849 262.59562737 64.26124876 267 75 C267.39574219 75.84949219 267.79148437 76.69898438 268.19921875 77.57421875 C269.10662744 80.32300311 269.12277967 81.36227359 268 84 C266.65234375 85.82421875 266.65234375 85.82421875 264.9375 87.6875 C264.30585938 88.38101563 263.67421875 89.07453125 263.0234375 89.7890625 C262.35570312 90.51867187 261.68796875 91.24828125 261 92 C260.02933594 93.12535156 260.02933594 93.12535156 259.0390625 94.2734375 C255.30215541 98.60115994 251.46659532 102.52765625 247.09375 106.2109375 C245.6665919 107.43041215 244.27128521 108.68792852 242.90625 109.9765625 C229.83433854 122.28743802 214.52116091 132.08194899 199 141 C198.26765137 141.4237793 197.53530273 141.84755859 196.78076172 142.28417969 C173.34796164 155.68170678 147.65379654 164.05508676 121.25 169.25 C120.10084106 169.47695557 120.10084106 169.47695557 118.9284668 169.70849609 C104.00234775 172.45278099 89.08977434 173.38094777 73.9375 173.3125 C73.09171387 173.31067719 72.24592773 173.30885437 71.37451172 173.30697632 C57.0794448 173.25540899 43.10493242 172.47003379 29 170 C28.08041504 169.8443457 27.16083008 169.68869141 26.21337891 169.52832031 C-13.76424528 162.51175359 -52.24683308 145.24561382 -84 120 C-84.9075 119.28457031 -85.815 118.56914062 -86.75 117.83203125 C-96.61874722 109.91180088 -105.97387868 101.34823851 -114.78515625 92.265625 C-116.16411132 90.85505367 -117.58362188 89.48171719 -119.05859375 88.171875 C-120.82355789 86.48945929 -122.01164614 85.22976451 -123 83 C-122.83837612 79.30851063 -121.51359861 76.33658059 -120 73 C-119.59007812 72.02417969 -119.18015625 71.04835938 -118.7578125 70.04296875 C-112.20093482 55.61413341 -99.96249531 44.96399027 -86.625 36.8125 C-85.28248169 35.99011841 -85.28248169 35.99011841 -83.9128418 35.15112305 C-64.35489312 23.44104527 -43.39269722 14.72694514 -22 7 C-20.99565918 6.63583984 -19.99131836 6.27167969 -18.95654297 5.89648438 C-2.61724463 0 -2.61724463 0 0 0 Z " transform="translate(183,339)" style="fill: #3C3277;"/><path d="M0 0 C7.6294558 3.09666147 12.63201091 10.6173878 15.9921875 17.80859375 C21.26713269 32.83857458 18.08561228 49.98608669 11.8046875 64.18359375 C9.81965511 67.93091967 7.64875194 69.93432306 4.33984375 72.53515625 C0.76896185 76.04289737 -0.55171048 78.54659249 -0.78697205 83.59750366 C-0.77699253 87.34474366 -0.60896185 91.0687976 -0.3828125 94.80859375 C-0.24078829 97.80796347 -0.12591492 100.8073652 -0.03125 103.80859375 C-0.0073822 104.5473877 0.0164856 105.28618164 0.04107666 106.04736328 C0.14339613 111.51750803 -0.36276036 116.73305672 -1.296875 122.12109375 C-1.41606293 122.82041016 -1.53525085 123.51972656 -1.65805054 124.24023438 C-2.44375839 128.28508538 -3.50569325 131.51262944 -6.0078125 134.80859375 C-6.9978125 135.13859375 -7.9878125 135.46859375 -9.0078125 135.80859375 C-9.72291425 129.33105955 -10.4346495 122.85316182 -11.14404297 116.375 C-11.38577982 114.17113868 -11.62828787 111.96736182 -11.87158203 109.76367188 C-12.22110419 106.59657311 -12.56785397 103.42918124 -12.9140625 100.26171875 C-13.07811584 98.78339569 -13.07811584 98.78339569 -13.2454834 97.27520752 C-13.34558716 96.35455505 -13.44569092 95.43390259 -13.54882812 94.48535156 C-13.63765259 93.67704895 -13.72647705 92.86874634 -13.81799316 92.03594971 C-13.99433832 89.96670091 -14.0078125 87.88534318 -14.0078125 85.80859375 C-14.80960938 86.17210938 -15.61140625 86.535625 -16.4375 86.91015625 C-41.17851078 97.85005897 -66.24906794 102.47408703 -93.0078125 105.80859375 C-93.89597656 105.92114502 -94.78414063 106.03369629 -95.69921875 106.1496582 C-101.18858776 106.75148099 -106.61529084 106.84647879 -112.1328125 106.765625 C-113.21254333 106.75048103 -113.21254333 106.75048103 -114.31408691 106.73503113 C-117.29508138 106.6893461 -120.27552982 106.64041876 -123.25585938 106.56176758 C-131.71745162 106.35022777 -139.0844477 106.47391109 -147.00390625 109.94018555 C-149.0078125 110.80859375 -149.0078125 110.80859375 -151.0078125 110.80859375 C-149.09753509 132.60979584 -149.09753509 132.60979584 -142.88671875 153.4765625 C-142.0078125 155.80859375 -142.0078125 155.80859375 -142.0078125 158.80859375 C-145.6378125 158.80859375 -149.2678125 158.80859375 -153.0078125 158.80859375 C-153.15476562 157.34099609 -153.15476562 157.34099609 -153.3046875 155.84375 C-154.17872586 148.18084476 -155.42102249 141.70268364 -159.0078125 134.80859375 C-159.3378125 133.81859375 -159.6678125 132.82859375 -160.0078125 131.80859375 C-165.11697767 129.14437243 -170.33587741 128.44655534 -176.0078125 128.80859375 C-180.82450777 136.42929377 -182.23343646 142.85752039 -181.0078125 151.80859375 C-178.73981295 161.49440835 -174.64020053 169.95172699 -169.77734375 178.56640625 C-168.29490754 181.28256973 -167.07415109 183.91034015 -166.0078125 186.80859375 C-170.12765096 187.31306377 -173.11743775 187.22260208 -176.5078125 184.80859375 C-194.24070316 167.62985592 -200.85095076 122.34965098 -201.68847656 98.32861328 C-201.71413796 87.93024757 -200.13749678 78.9484517 -195.37109375 69.59765625 C-193.85228289 67.00780708 -193.85228289 67.00780708 -194.0078125 64.68359375 C-196.5004182 60.00995805 -201.73912639 57.77367275 -206.3203125 55.55859375 C-207.38894531 55.0378125 -208.45757812 54.51703125 -209.55859375 53.98046875 C-210.36683594 53.59375 -211.17507812 53.20703125 -212.0078125 52.80859375 C-208.41295732 49.21373857 -204.29455785 49.62393848 -199.3828125 49.55859375 C-193.11057597 49.58483742 -187.84153425 50.55037888 -182.0078125 52.80859375 C-183.95650417 47.30640551 -186.56659995 43.73939538 -190.58203125 39.5078125 C-192.0078125 37.80859375 -192.0078125 37.80859375 -192.0078125 35.80859375 C-177.71781228 35.11434273 -177.71781228 35.11434273 -171.5078125 38.30859375 C-167.84822711 39.82585251 -166.58836638 40.03480217 -162.83984375 38.57421875 C-161.01429577 37.57492774 -159.24029709 36.509939 -157.4621582 35.42871094 C-134.32869732 21.59603787 -104.2210965 18.22963215 -77.859375 16.1328125 C-39.71718431 13.25459139 -39.71718431 13.25459139 -3.87670898 0.69970703 C-2.0078125 -0.19140625 -2.0078125 -0.19140625 0 0 Z " transform="translate(368.0078125,34.19140625)" style="fill: #3C3276;"/><path d="M0 0 C5.92863717 1.16651426 11.38798394 2.75519358 17 5 C15.6884381 7.80169326 14.18231361 10.10868981 12.3125 12.5625 C2.96635094 26.66092824 -0.09747763 44.50743544 -4.1484375 60.69140625 C-5.9008549 67.68057454 -7.84355625 74.587537 -9.9375 81.48046875 C-10.92944289 84.76627957 -11.84457316 88.06453313 -12.75 91.375 C-30.0629353 151.83065309 -30.0629353 151.83065309 -51 169 C-51.33 169 -51.66 169 -52 169 C-53.24270122 150.41542324 -54.27708077 131.83046383 -55.1234436 113.22366333 C-55.64376126 101.825002 -56.26675897 90.44531515 -57.0625 79.0625 C-58.22097775 62.39068817 -58.63127637 45.70497912 -59 29 C-57.68 30.65 -56.36 32.3 -55 34 C-51.39938944 32.6544027 -48.20714411 31.04189996 -44.921875 29.05078125 C-43.44448853 28.15975708 -43.44448853 28.15975708 -41.93725586 27.25073242 C-40.88546143 26.61111572 -39.83366699 25.97149902 -38.75 25.3125 C-36.51716024 23.96055234 -34.28407979 22.60900216 -32.05078125 21.2578125 C-31.47747574 20.91032455 -30.90417023 20.56283661 -30.31349182 20.20481873 C-26.15670362 17.68850019 -21.97945022 15.20871956 -17.79296875 12.7421875 C-16.63235617 12.05580382 -15.47187233 11.36920241 -14.31152344 10.68237305 C-12.08491144 9.36590079 -9.85514617 8.05474543 -7.62207031 6.74926758 C-6.62143555 6.15525146 -5.62080078 5.56123535 -4.58984375 4.94921875 C-3.70159912 4.42674561 -2.81335449 3.90427246 -1.89819336 3.3659668 C-1.27178955 2.91519775 -0.64538574 2.46442871 0 2 C0 1.34 0 0.68 0 0 Z " transform="translate(329,339)" style="fill: #6385EE;"/><path d="M0 0 C0.56041992 0.57347168 1.12083984 1.14694336 1.69824219 1.73779297 C4.45548105 4.44765459 7.50647436 6.27578477 10.828125 8.1953125 C11.82132751 8.77955238 11.82132751 8.77955238 12.83459473 9.37559509 C14.97001579 10.63067505 17.11001001 11.87772968 19.25 13.125 C22.1580445 14.83159109 25.06350882 16.54254828 27.96875 18.25390625 C29.02796661 18.87684822 29.02796661 18.87684822 30.10858154 19.51237488 C35.99919677 22.98281653 41.8204865 26.55343131 47.58300781 30.23291016 C50.32692655 31.98132674 53.05147931 33.6187755 56 35 C56.99 32.03 56.99 32.03 58 29 C58.33 29 58.66 29 59 29 C59.45598368 45.49985376 58.61075696 61.79764037 57.48672485 78.25149536 C56.60245841 91.20844955 55.80689138 104.1653971 55.16796875 117.13671875 C55.11761128 118.15815192 55.11761128 118.15815192 55.0662365 119.20022011 C54.7663603 125.30403125 54.4725969 131.40812566 54.18661499 137.51260376 C54.06609193 140.08270258 53.94442471 142.65274807 53.82148743 145.22273254 C53.70940021 147.56812379 53.6000814 149.91364965 53.49406433 152.25932312 C53.23937838 157.56798981 52.87917924 162.75669087 52 168 C35.72347099 152.81546976 29.08622222 116.25487446 23.48046875 95.390625 C21.96015244 89.75461617 20.13747682 84.27517565 18.23046875 78.7578125 C17.03686696 75.11259054 15.99202115 71.45468084 14.9753418 67.75756836 C6.84572156 35.78270784 6.84572156 35.78270784 -10 8 C-13.62473109 6.64164329 -13.62473109 6.64164329 -17 6 C-13.9666221 3.97774806 -11.38655511 3.00652476 -7.9375 1.875 C-6.87402344 1.52179688 -5.81054688 1.16859375 -4.71484375 0.8046875 C-2 0 -2 0 0 0 Z " transform="translate(183,339)" style="fill: #6385EE;"/><path d="M0 0 C6.6503775 2.15290358 13.19422364 4.53613703 19.73046875 7.01171875 C21.76999456 7.77719309 23.8097139 8.54215195 25.84960938 9.30664062 C29.03107712 10.50015292 32.21132039 11.69653507 35.38842773 12.90161133 C38.47829564 14.07235093 41.57261645 15.23057102 44.66796875 16.38671875 C45.6149614 16.74916183 46.56195404 17.11160492 47.53764343 17.48503113 C57.15906136 21.05393985 62.7147018 19.69324669 72.1640625 16.1328125 C73.23369232 15.73802704 74.30332214 15.34324158 75.40536499 14.93649292 C78.81534548 13.67504563 82.22004275 12.39993526 85.625 11.125 C87.92416846 10.27389976 90.22364449 9.42362992 92.5234375 8.57421875 C94.71642231 7.76116199 96.90913999 6.94738428 99.1015625 6.1328125 C100.13391022 5.74940704 101.16625793 5.36600159 102.22988892 4.97097778 C103.19123749 4.61075531 104.15258606 4.25053284 105.14306641 3.87939453 C105.98656647 3.56406769 106.83006653 3.24874084 107.6991272 2.92385864 C110.00469787 2.04436095 110.00469787 2.04436095 112.11605835 0.88253784 C114 0 114 0 117 0 C118.50219727 1.66479492 118.50219727 1.66479492 120.06640625 3.98046875 C120.63423828 4.81513672 121.20207031 5.64980469 121.78710938 6.50976562 C122.37298828 7.39341797 122.95886719 8.27707031 123.5625 9.1875 C124.44711914 10.48397461 124.44711914 10.48397461 125.34960938 11.80664062 C128.03440851 15.79260521 130.32710701 19.47343663 132 24 C131.2879541 24.43119141 130.5759082 24.86238281 129.84228516 25.30664062 C127.06624709 26.98833456 124.29081639 28.67102477 121.51559448 30.35406494 C119.62304825 31.501183 117.7296294 32.64685124 115.83618164 33.79248047 C109.34640535 37.72378578 102.87977748 41.6865544 96.45703125 45.7265625 C94.68607958 46.835569 92.91479061 47.94403534 91.14349365 49.05249023 C89.45451034 50.11430608 87.77237432 51.18698826 86.09033203 52.25976562 C85.0692334 52.89849609 84.04813477 53.53722656 82.99609375 54.1953125 C82.10075928 54.76266113 81.2054248 55.33000977 80.28295898 55.91455078 C78 57 78 57 75 56 C73.40600586 53.67089844 73.40600586 53.67089844 71.71484375 50.609375 C71.10189453 49.50722656 70.48894531 48.40507812 69.85742188 47.26953125 C69.54216553 46.69154785 69.22690918 46.11356445 68.90209961 45.51806641 C67.94619502 43.76593757 66.97608142 42.0215852 66.00585938 40.27734375 C63.41546981 35.58789247 60.89282716 31.02068231 59 26 C58.34 26 57.68 26 57 26 C56.73719238 26.86512207 56.47438477 27.73024414 56.20361328 28.62158203 C54.99425254 32.01613254 53.51790329 34.92297055 51.7421875 38.0546875 C50.80439453 39.71757812 50.80439453 39.71757812 49.84765625 41.4140625 C49.19667969 42.55617188 48.54570312 43.69828125 47.875 44.875 C47.20915523 46.05181177 46.54378604 47.22889276 45.87890625 48.40625 C44.25725735 51.27351326 42.63082801 54.13795084 41 57 C37.25149374 55.84297916 34.00817399 54.59433167 30.69921875 52.48828125 C29.89863037 51.98474121 29.09804199 51.48120117 28.27319336 50.96240234 C27.41991455 50.41793457 26.56663574 49.8734668 25.6875 49.3125 C23.82921578 48.14279655 21.96978809 46.97490825 20.109375 45.80859375 C19.12646484 45.19226074 18.14355469 44.57592773 17.13085938 43.94091797 C10.53359386 39.85106606 3.85056891 35.90158153 -2.82348633 31.9387207 C-3.8317749 31.33761475 -4.84006348 30.73650879 -5.87890625 30.1171875 C-6.7716626 29.58722168 -7.66441895 29.05725586 -8.58422852 28.51123047 C-10.82253579 27.11101602 -12.91620899 25.61894299 -15 24 C-14.36791079 20.588948 -13.06208716 18.32684002 -11.09375 15.48828125 C-10.22556641 14.22854492 -10.22556641 14.22854492 -9.33984375 12.94335938 C-8.73269531 12.07517578 -8.12554687 11.20699219 -7.5 10.3125 C-6.89285156 9.43271484 -6.28570312 8.55292969 -5.66015625 7.64648438 C-1.1896734 1.1896734 -1.1896734 1.1896734 0 0 Z " transform="translate(198,317)" style="fill: #F9E2DB;"/><path d="M0 0 C3.90520527 1.47257278 7.50274954 3.29536534 11.1875 5.25 C26.29002991 12.97073965 42.30836492 16.6154807 59 19 C59 25.93 59 32.86 59 40 C41.38871408 36.08638091 26.39254307 28.01838963 13 16 C12.33226562 15.40316406 11.66453125 14.80632812 10.9765625 14.19140625 C6.51596817 9.97429414 3.22267306 5.20585648 0 0 Z " transform="translate(249,270)" style="fill: #41203D;"/><path d="M0 0 C0.66 0 1.32 0 2 0 C4.1681511 3.65389428 6.30530193 7.32502825 8.4375 11 C9.04916016 12.02996094 9.66082031 13.05992187 10.29101562 14.12109375 C13.62610766 19.90683352 15.82502997 24.29281554 16 31 C16.03222656 31.9796875 16.06445312 32.959375 16.09765625 33.96875 C16.08605469 34.8040625 16.07445312 35.639375 16.0625 36.5 C16.05347656 37.3559375 16.04445313 38.211875 16.03515625 39.09375 C16.02355469 39.7228125 16.01195312 40.351875 16 41 C12.29102741 39.60582632 8.92161688 37.92181521 5.48046875 35.9609375 C4.45888672 35.38085938 3.43730469 34.80078125 2.38476562 34.203125 C1.32966797 33.59984375 0.27457031 32.9965625 -0.8125 32.375 C-1.88693359 31.76398438 -2.96136719 31.15296875 -4.06835938 30.5234375 C-6.71386076 29.01844115 -9.3576625 27.51054209 -12 26 C-11.46615777 21.81956382 -10.56650747 18.70393276 -8.49609375 15.0390625 C-8.00302734 14.15605469 -7.50996094 13.27304687 -7.00195312 12.36328125 C-6.48568359 11.45964844 -5.96941406 10.55601562 -5.4375 9.625 C-4.91736328 8.69816406 -4.39722656 7.77132813 -3.86132812 6.81640625 C-2.58212166 4.53965346 -1.29487762 2.26786477 0 0 Z " transform="translate(255,343)" style="fill: #241D4B;"/></svg>
