<svg width="240" height="120" viewBox="0 0 240 120" fill="none" xmlns="http://www.w3.org/2000/svg">
<path d="M104.224 78.728C101.52 78.728 99.1278 78.26 97.0478 77.324C94.9678 76.3533 93.3212 74.932 92.1078 73.06C90.9292 71.1533 90.3398 68.8133 90.3398 66.04V64.844H95.2798V66.04C95.2798 68.848 96.0945 70.9453 97.7238 72.332C99.3878 73.684 101.555 74.36 104.224 74.36C106.928 74.36 108.991 73.7706 110.412 72.592C111.833 71.3786 112.544 69.8533 112.544 68.016C112.544 66.768 112.215 65.78 111.556 65.052C110.897 64.2893 109.979 63.6653 108.8 63.1799C107.621 62.6946 106.217 62.2613 104.588 61.88L102.3 61.308C100.081 60.788 98.1398 60.1293 96.4758 59.3319C94.8118 58.5 93.5118 57.4253 92.5758 56.1079C91.6398 54.7906 91.1718 53.0746 91.1718 50.9599C91.1718 48.8799 91.6918 47.0946 92.7318 45.6039C93.7718 44.0786 95.2105 42.9173 97.0478 42.1199C98.9198 41.2879 101.104 40.8719 103.6 40.8719C106.096 40.8719 108.332 41.3053 110.308 42.172C112.284 43.0039 113.844 44.2693 114.988 45.9679C116.132 47.6319 116.704 49.7293 116.704 52.2599V54.2879H111.764V52.2599C111.764 50.5959 111.417 49.2613 110.724 48.2559C110.031 47.2159 109.06 46.4533 107.812 45.9679C106.599 45.4826 105.195 45.2399 103.6 45.2399C101.277 45.2399 99.4398 45.7426 98.0878 46.748C96.7705 47.7186 96.1118 49.1053 96.1118 50.9079C96.1118 52.0866 96.4065 53.0573 96.9958 53.8199C97.5852 54.5479 98.4172 55.1546 99.4918 55.6399C100.601 56.1253 101.936 56.5413 103.496 56.8879L105.784 57.4599C108.037 57.9453 110.031 58.604 111.764 59.4359C113.532 60.2333 114.919 61.308 115.924 62.66C116.964 64.0119 117.484 65.7626 117.484 67.912C117.484 70.096 116.929 72.0026 115.82 73.632C114.745 75.2266 113.203 76.4746 111.192 77.3759C109.216 78.2773 106.893 78.728 104.224 78.728Z" fill="black"/>
<path d="M134.037 78.728C131.472 78.728 129.218 78.1906 127.277 77.116C125.336 76.0066 123.828 74.464 122.753 72.4879C121.678 70.5119 121.141 68.2066 121.141 65.572V64.948C121.141 62.2786 121.678 59.9559 122.753 57.9799C123.828 56.0039 125.318 54.4786 127.225 53.4039C129.132 52.2946 131.333 51.74 133.829 51.74C136.256 51.74 138.388 52.2773 140.225 53.3519C142.097 54.3919 143.553 55.8826 144.593 57.8239C145.633 59.7306 146.153 61.9839 146.153 64.584V66.5079H125.925C125.994 69.004 126.809 70.9799 128.369 72.4359C129.929 73.8573 131.853 74.568 134.141 74.568C136.256 74.568 137.868 74.1 138.977 73.164C140.086 72.1933 140.918 71.0666 141.473 69.784L145.477 71.76C144.992 72.8 144.281 73.8573 143.345 74.9319C142.444 76.0066 141.248 76.908 139.757 77.636C138.266 78.364 136.36 78.728 134.037 78.728ZM125.977 62.764H141.317C141.178 60.6146 140.433 58.9506 139.081 57.7719C137.729 56.5586 135.961 55.9519 133.777 55.9519C131.628 55.9519 129.86 56.5586 128.473 57.7719C127.121 58.9506 126.289 60.6146 125.977 62.764Z" fill="black"/>
<path d="M151.399 78V41.5999H156.131V62.712H156.859L167.727 52.4679H174.175L160.655 64.896L174.591 78H168.247L156.859 67.132H156.131V78H151.399Z" fill="black"/>
<path d="M188.559 78.728C185.993 78.728 183.722 78.1906 181.746 77.116C179.771 76.0413 178.228 74.5333 177.118 72.592C176.009 70.616 175.454 68.2933 175.454 65.624V64.896C175.454 62.1919 176.009 59.8693 177.118 57.9279C178.228 55.9519 179.771 54.4266 181.746 53.3519C183.722 52.2773 185.993 51.74 188.559 51.74C191.124 51.74 193.395 52.2773 195.37 53.3519C197.346 54.4266 198.889 55.9519 199.998 57.9279C201.143 59.8693 201.715 62.1919 201.715 64.896V65.624C201.715 68.2933 201.143 70.616 199.998 72.592C198.889 74.5333 197.346 76.0413 195.37 77.116C193.395 78.1906 191.124 78.728 188.559 78.728ZM188.559 74.5159C191.089 74.5159 193.117 73.7186 194.643 72.124C196.202 70.4946 196.982 68.276 196.982 65.468V65C196.982 62.2266 196.202 60.0426 194.643 58.448C193.117 56.8186 191.089 56.004 188.559 56.004C186.062 56.004 184.035 56.8186 182.475 58.448C180.949 60.0426 180.187 62.2266 180.187 65V65.468C180.187 68.276 180.949 70.4946 182.475 72.124C184.035 73.7186 186.062 74.5159 188.559 74.5159Z" fill="black"/>
<path d="M65.0876 62.7798L54.4894 67.4984L51.9751 68.6177L39.4047 74.2143C39.1896 74.3101 39.0411 74.5091 39.0073 74.7376L39 74.8374V89.3181C39.0002 89.8114 39.5079 90.141 39.9586 89.9405L65.6421 78.5054L65.73 78.4588C65.9252 78.335 66.0469 78.1186 66.0469 77.8829V74.8829V72.6442V63.4022C66.0468 62.9089 65.5384 62.5791 65.0876 62.7798Z" fill="black"/>
<path fill-rule="evenodd" clip-rule="evenodd" d="M59.2473 53.6442L56.7331 52.5249L45.2273 47.4024L43.1823 46.4919L39.9586 45.0567C39.5079 44.8562 39.0001 45.1858 39 45.6791V60.1598C39 60.4291 39.1588 60.6727 39.4047 60.7822L51.9755 66.3792L64.2559 60.9116C66.0592 60.1087 68.0915 61.4286 68.0915 63.4025V73.5547L71.3151 74.99C71.7658 75.1905 72.2736 74.8608 72.2737 74.3676V59.8869C72.2737 59.6177 72.1156 59.3733 71.8696 59.2638L59.2473 53.6442ZM43.1823 56.5981L43.1883 56.7814C43.1903 56.8114 43.1926 56.8412 43.1955 56.8708C43.1984 56.9008 43.2017 56.9305 43.2056 56.9602C43.1903 56.8423 43.1823 56.7215 43.1823 56.5981Z" fill="black"/>
<path fill-rule="evenodd" clip-rule="evenodd" d="M72.2734 30.6824V45.1631C72.2734 45.3987 72.1518 45.6152 71.9566 45.7389L71.8687 45.7855L59.2463 51.4055L45.2266 45.1633V42.1176L45.2339 42.0177C45.2676 41.7892 45.4162 41.5903 45.6313 41.4945L71.3142 30.06C71.7649 29.8593 72.2733 30.189 72.2734 30.6824Z" fill="black"/>
</svg>
